<mxfile host="app.diagrams.net" agent="Mozilla/5.0 (X11; Linux x86_64; rv:128.0) Gecko/20100101 Firefox/128.0" version="25.0.3">
  <diagram name="Page-1" id="EMa1pMTZzpA0k4Gmwb4X">
    <mxGraphModel dx="1434" dy="1816" grid="1" gridSize="10" guides="1" tooltips="1" connect="1" arrows="1" fold="1" page="1" pageScale="1" pageWidth="827" pageHeight="1169" math="0" shadow="0">
      <root>
        <mxCell id="0" />
        <mxCell id="1" parent="0" />
        <mxCell id="xk-oOxLGbY3HGCxId3EP-69" value="" style="rounded=0;whiteSpace=wrap;html=1;fillColor=#f5f5f5;strokeColor=#666666;fontColor=#333333;strokeWidth=2;" vertex="1" parent="1">
          <mxGeometry x="560" y="160" width="80" height="420" as="geometry" />
        </mxCell>
        <mxCell id="xk-oOxLGbY3HGCxId3EP-70" value="" style="rounded=0;whiteSpace=wrap;html=1;fillColor=#dae8fc;strokeColor=#6c8ebf;strokeWidth=2;" vertex="1" parent="1">
          <mxGeometry x="570" y="170" width="60" height="100" as="geometry" />
        </mxCell>
        <mxCell id="xk-oOxLGbY3HGCxId3EP-74" value="" style="rounded=0;whiteSpace=wrap;html=1;fillColor=#fff2cc;strokeColor=#d6b656;strokeWidth=2;" vertex="1" parent="1">
          <mxGeometry x="580" y="180" width="40" height="40" as="geometry" />
        </mxCell>
        <mxCell id="xk-oOxLGbY3HGCxId3EP-75" value="" style="rounded=0;whiteSpace=wrap;html=1;fillColor=#fff2cc;strokeColor=#d6b656;strokeWidth=2;" vertex="1" parent="1">
          <mxGeometry x="580" y="220" width="40" height="40" as="geometry" />
        </mxCell>
        <mxCell id="xk-oOxLGbY3HGCxId3EP-90" value="&lt;font style=&quot;font-size: 14px;&quot; color=&quot;#9a9996&quot;&gt;&lt;b&gt;t&lt;sub&gt;6&lt;/sub&gt;&lt;/b&gt;&lt;/font&gt;" style="text;html=1;align=center;verticalAlign=middle;whiteSpace=wrap;rounded=0;" vertex="1" parent="1">
          <mxGeometry x="570" y="580" width="60" height="30" as="geometry" />
        </mxCell>
        <mxCell id="xk-oOxLGbY3HGCxId3EP-99" value="" style="rounded=0;whiteSpace=wrap;html=1;fillColor=#dae8fc;strokeColor=#6c8ebf;strokeWidth=2;" vertex="1" parent="1">
          <mxGeometry x="570" y="270" width="60" height="100" as="geometry" />
        </mxCell>
        <mxCell id="xk-oOxLGbY3HGCxId3EP-100" value="" style="rounded=0;whiteSpace=wrap;html=1;fillColor=#fff2cc;strokeColor=#d6b656;strokeWidth=2;" vertex="1" parent="1">
          <mxGeometry x="580" y="280" width="40" height="40" as="geometry" />
        </mxCell>
        <mxCell id="xk-oOxLGbY3HGCxId3EP-101" value="" style="rounded=0;whiteSpace=wrap;html=1;fillColor=#fff2cc;strokeColor=#d6b656;strokeWidth=2;" vertex="1" parent="1">
          <mxGeometry x="580" y="320" width="40" height="40" as="geometry" />
        </mxCell>
        <mxCell id="xk-oOxLGbY3HGCxId3EP-102" value="" style="rounded=0;whiteSpace=wrap;html=1;fillColor=#dae8fc;strokeColor=#6c8ebf;strokeWidth=2;" vertex="1" parent="1">
          <mxGeometry x="570" y="370" width="60" height="100" as="geometry" />
        </mxCell>
        <mxCell id="xk-oOxLGbY3HGCxId3EP-103" value="" style="rounded=0;whiteSpace=wrap;html=1;fillColor=#fff2cc;strokeColor=#d6b656;strokeWidth=2;" vertex="1" parent="1">
          <mxGeometry x="580" y="380" width="40" height="40" as="geometry" />
        </mxCell>
        <mxCell id="xk-oOxLGbY3HGCxId3EP-104" value="" style="rounded=0;whiteSpace=wrap;html=1;fillColor=#fff2cc;strokeColor=#d6b656;strokeWidth=2;" vertex="1" parent="1">
          <mxGeometry x="580" y="420" width="40" height="40" as="geometry" />
        </mxCell>
        <mxCell id="xk-oOxLGbY3HGCxId3EP-105" value="" style="rounded=0;whiteSpace=wrap;html=1;fillColor=#dae8fc;strokeColor=#6c8ebf;strokeWidth=2;" vertex="1" parent="1">
          <mxGeometry x="570" y="470" width="60" height="100" as="geometry" />
        </mxCell>
        <mxCell id="xk-oOxLGbY3HGCxId3EP-106" value="" style="rounded=0;whiteSpace=wrap;html=1;fillColor=#fff2cc;strokeColor=#d6b656;strokeWidth=2;" vertex="1" parent="1">
          <mxGeometry x="580" y="480" width="40" height="40" as="geometry" />
        </mxCell>
        <mxCell id="xk-oOxLGbY3HGCxId3EP-107" value="" style="rounded=0;whiteSpace=wrap;html=1;fillColor=#fff2cc;strokeColor=#d6b656;strokeWidth=2;" vertex="1" parent="1">
          <mxGeometry x="580" y="520" width="40" height="40" as="geometry" />
        </mxCell>
        <mxCell id="xk-oOxLGbY3HGCxId3EP-108" value="" style="rounded=0;whiteSpace=wrap;html=1;fillColor=#f5f5f5;strokeColor=#666666;fontColor=#333333;strokeWidth=2;" vertex="1" parent="1">
          <mxGeometry x="160" y="160" width="80" height="420" as="geometry" />
        </mxCell>
        <mxCell id="xk-oOxLGbY3HGCxId3EP-109" value="" style="rounded=0;whiteSpace=wrap;html=1;fillColor=#dae8fc;strokeColor=#6c8ebf;strokeWidth=2;" vertex="1" parent="1">
          <mxGeometry x="170" y="170" width="60" height="100" as="geometry" />
        </mxCell>
        <mxCell id="xk-oOxLGbY3HGCxId3EP-110" value="" style="rounded=0;whiteSpace=wrap;html=1;fillColor=#fff2cc;strokeColor=#d6b656;strokeWidth=2;" vertex="1" parent="1">
          <mxGeometry x="180" y="180" width="40" height="40" as="geometry" />
        </mxCell>
        <mxCell id="xk-oOxLGbY3HGCxId3EP-111" value="" style="rounded=0;whiteSpace=wrap;html=1;fillColor=#fff2cc;strokeColor=#d6b656;strokeWidth=2;" vertex="1" parent="1">
          <mxGeometry x="180" y="220" width="40" height="40" as="geometry" />
        </mxCell>
        <mxCell id="xk-oOxLGbY3HGCxId3EP-112" value="&lt;font color=&quot;#9a9996&quot;&gt;&lt;b&gt;&lt;font style=&quot;font-size: 14px;&quot;&gt;t&lt;sub&gt;1&lt;br&gt;&lt;/sub&gt;&lt;/font&gt;&lt;/b&gt;&lt;/font&gt;" style="text;html=1;align=center;verticalAlign=middle;whiteSpace=wrap;rounded=0;" vertex="1" parent="1">
          <mxGeometry x="170" y="580" width="60" height="30" as="geometry" />
        </mxCell>
        <mxCell id="xk-oOxLGbY3HGCxId3EP-113" value="" style="rounded=0;whiteSpace=wrap;html=1;fillColor=#dae8fc;strokeColor=#6c8ebf;strokeWidth=2;" vertex="1" parent="1">
          <mxGeometry x="170" y="270" width="60" height="100" as="geometry" />
        </mxCell>
        <mxCell id="xk-oOxLGbY3HGCxId3EP-114" value="" style="rounded=0;whiteSpace=wrap;html=1;fillColor=#fff2cc;strokeColor=#d6b656;strokeWidth=2;" vertex="1" parent="1">
          <mxGeometry x="180" y="280" width="40" height="40" as="geometry" />
        </mxCell>
        <mxCell id="xk-oOxLGbY3HGCxId3EP-115" value="" style="rounded=0;whiteSpace=wrap;html=1;fillColor=#fff2cc;strokeColor=#d6b656;strokeWidth=2;" vertex="1" parent="1">
          <mxGeometry x="180" y="320" width="40" height="40" as="geometry" />
        </mxCell>
        <mxCell id="xk-oOxLGbY3HGCxId3EP-116" value="" style="rounded=0;whiteSpace=wrap;html=1;fillColor=#dae8fc;strokeColor=#6c8ebf;strokeWidth=2;" vertex="1" parent="1">
          <mxGeometry x="170" y="370" width="60" height="100" as="geometry" />
        </mxCell>
        <mxCell id="xk-oOxLGbY3HGCxId3EP-117" value="" style="rounded=0;whiteSpace=wrap;html=1;fillColor=#fff2cc;strokeColor=#d6b656;strokeWidth=2;" vertex="1" parent="1">
          <mxGeometry x="180" y="380" width="40" height="40" as="geometry" />
        </mxCell>
        <mxCell id="xk-oOxLGbY3HGCxId3EP-118" value="" style="rounded=0;whiteSpace=wrap;html=1;fillColor=#fff2cc;strokeColor=#d6b656;strokeWidth=2;" vertex="1" parent="1">
          <mxGeometry x="180" y="420" width="40" height="40" as="geometry" />
        </mxCell>
        <mxCell id="xk-oOxLGbY3HGCxId3EP-119" value="" style="rounded=0;whiteSpace=wrap;html=1;fillColor=#dae8fc;strokeColor=#6c8ebf;strokeWidth=2;" vertex="1" parent="1">
          <mxGeometry x="170" y="470" width="60" height="100" as="geometry" />
        </mxCell>
        <mxCell id="xk-oOxLGbY3HGCxId3EP-120" value="" style="rounded=0;whiteSpace=wrap;html=1;fillColor=#fff2cc;strokeColor=#d6b656;strokeWidth=2;" vertex="1" parent="1">
          <mxGeometry x="180" y="480" width="40" height="40" as="geometry" />
        </mxCell>
        <mxCell id="xk-oOxLGbY3HGCxId3EP-121" value="" style="rounded=0;whiteSpace=wrap;html=1;fillColor=#fff2cc;strokeColor=#d6b656;strokeWidth=2;" vertex="1" parent="1">
          <mxGeometry x="180" y="520" width="40" height="40" as="geometry" />
        </mxCell>
        <mxCell id="xk-oOxLGbY3HGCxId3EP-98" style="rounded=0;orthogonalLoop=1;jettySize=auto;html=1;entryX=0;entryY=0.5;entryDx=0;entryDy=0;endArrow=none;endFill=0;strokeWidth=2;strokeColor=#6c8ebf;fillColor=#dae8fc;" edge="1" parent="1" source="xk-oOxLGbY3HGCxId3EP-94">
          <mxGeometry relative="1" as="geometry">
            <mxPoint x="170" y="520" as="targetPoint" />
          </mxGeometry>
        </mxCell>
        <mxCell id="xk-oOxLGbY3HGCxId3EP-94" value="&lt;div&gt;&lt;font color=&quot;#1a5fb4&quot;&gt;&lt;b&gt;&lt;font style=&quot;font-size: 14px;&quot;&gt;Batch 4&lt;/font&gt;&lt;/b&gt;&lt;/font&gt;&lt;/div&gt;" style="text;html=1;align=center;verticalAlign=middle;whiteSpace=wrap;rounded=0;" vertex="1" parent="1">
          <mxGeometry x="80" y="505" width="60" height="30" as="geometry" />
        </mxCell>
        <mxCell id="xk-oOxLGbY3HGCxId3EP-95" style="rounded=0;orthogonalLoop=1;jettySize=auto;html=1;entryX=0;entryY=0.5;entryDx=0;entryDy=0;endArrow=none;endFill=0;strokeWidth=2;fillColor=#dae8fc;strokeColor=#6c8ebf;" edge="1" parent="1" source="xk-oOxLGbY3HGCxId3EP-91">
          <mxGeometry relative="1" as="geometry">
            <mxPoint x="170" y="220" as="targetPoint" />
          </mxGeometry>
        </mxCell>
        <mxCell id="xk-oOxLGbY3HGCxId3EP-91" value="&lt;font color=&quot;#1a5fb4&quot;&gt;&lt;b&gt;&lt;font style=&quot;font-size: 14px;&quot;&gt;Batch 1&lt;/font&gt;&lt;/b&gt;&lt;/font&gt;" style="text;html=1;align=center;verticalAlign=middle;whiteSpace=wrap;rounded=0;" vertex="1" parent="1">
          <mxGeometry x="80" y="205" width="60" height="30" as="geometry" />
        </mxCell>
        <mxCell id="xk-oOxLGbY3HGCxId3EP-96" style="rounded=0;orthogonalLoop=1;jettySize=auto;html=1;entryX=0;entryY=0.5;entryDx=0;entryDy=0;endArrow=none;endFill=0;strokeWidth=2;strokeColor=#6c8ebf;fillColor=#dae8fc;" edge="1" parent="1" source="xk-oOxLGbY3HGCxId3EP-92">
          <mxGeometry relative="1" as="geometry">
            <mxPoint x="170" y="320" as="targetPoint" />
          </mxGeometry>
        </mxCell>
        <mxCell id="xk-oOxLGbY3HGCxId3EP-92" value="&lt;div&gt;&lt;font color=&quot;#1a5fb4&quot;&gt;&lt;b&gt;&lt;font style=&quot;font-size: 14px;&quot;&gt;Batch 2&lt;/font&gt;&lt;/b&gt;&lt;/font&gt;&lt;/div&gt;" style="text;html=1;align=center;verticalAlign=middle;whiteSpace=wrap;rounded=0;" vertex="1" parent="1">
          <mxGeometry x="80" y="305" width="60" height="30" as="geometry" />
        </mxCell>
        <mxCell id="xk-oOxLGbY3HGCxId3EP-97" style="rounded=0;orthogonalLoop=1;jettySize=auto;html=1;entryX=0;entryY=0.5;entryDx=0;entryDy=0;endArrow=none;endFill=0;strokeWidth=2;strokeColor=#6c8ebf;fillColor=#dae8fc;" edge="1" parent="1" source="xk-oOxLGbY3HGCxId3EP-93">
          <mxGeometry relative="1" as="geometry">
            <mxPoint x="170" y="420" as="targetPoint" />
          </mxGeometry>
        </mxCell>
        <mxCell id="xk-oOxLGbY3HGCxId3EP-93" value="&lt;div&gt;&lt;font color=&quot;#1a5fb4&quot;&gt;&lt;b&gt;&lt;font style=&quot;font-size: 14px;&quot;&gt;Batch 3&lt;/font&gt;&lt;/b&gt;&lt;/font&gt;&lt;/div&gt;" style="text;html=1;align=center;verticalAlign=middle;whiteSpace=wrap;rounded=0;" vertex="1" parent="1">
          <mxGeometry x="80" y="405" width="60" height="30" as="geometry" />
        </mxCell>
        <mxCell id="xk-oOxLGbY3HGCxId3EP-152" style="rounded=0;orthogonalLoop=1;jettySize=auto;html=1;fillColor=#fff2cc;strokeColor=#d6b656;strokeWidth=2;endArrow=none;endFill=0;" edge="1" parent="1" source="xk-oOxLGbY3HGCxId3EP-151" target="xk-oOxLGbY3HGCxId3EP-74">
          <mxGeometry relative="1" as="geometry" />
        </mxCell>
        <mxCell id="xk-oOxLGbY3HGCxId3EP-151" value="&lt;font color=&quot;#e5a50a&quot; style=&quot;font-size: 14px;&quot;&gt;&lt;b&gt;&lt;font&gt;Neuron 1&lt;/font&gt;&lt;/b&gt;&lt;/font&gt;&lt;font color=&quot;#e5a50a&quot; style=&quot;font-size: 14px;&quot;&gt;&lt;b&gt;&lt;br&gt;&lt;/b&gt;&lt;/font&gt;" style="text;html=1;align=center;verticalAlign=middle;whiteSpace=wrap;rounded=0;" vertex="1" parent="1">
          <mxGeometry x="660" y="185" width="80" height="30" as="geometry" />
        </mxCell>
        <mxCell id="xk-oOxLGbY3HGCxId3EP-153" style="rounded=0;orthogonalLoop=1;jettySize=auto;html=1;fillColor=#fff2cc;strokeColor=#d6b656;strokeWidth=2;endArrow=none;endFill=0;" edge="1" parent="1" source="xk-oOxLGbY3HGCxId3EP-154">
          <mxGeometry relative="1" as="geometry">
            <mxPoint x="620" y="240" as="targetPoint" />
          </mxGeometry>
        </mxCell>
        <mxCell id="xk-oOxLGbY3HGCxId3EP-154" value="&lt;font color=&quot;#e5a50a&quot; style=&quot;font-size: 14px;&quot;&gt;&lt;b&gt;&lt;font&gt;Neuron 2&lt;/font&gt;&lt;/b&gt;&lt;/font&gt;&lt;font color=&quot;#e5a50a&quot; style=&quot;font-size: 14px;&quot;&gt;&lt;b&gt;&lt;font&gt;&lt;br&gt;&lt;/font&gt;&lt;/b&gt;&lt;/font&gt;" style="text;html=1;align=center;verticalAlign=middle;whiteSpace=wrap;rounded=0;" vertex="1" parent="1">
          <mxGeometry x="660" y="225" width="80" height="30" as="geometry" />
        </mxCell>
        <mxCell id="xk-oOxLGbY3HGCxId3EP-171" value="" style="rounded=0;whiteSpace=wrap;html=1;fillColor=#f5f5f5;strokeColor=#666666;fontColor=#333333;strokeWidth=2;" vertex="1" parent="1">
          <mxGeometry x="240" y="160" width="80" height="420" as="geometry" />
        </mxCell>
        <mxCell id="xk-oOxLGbY3HGCxId3EP-172" value="" style="rounded=0;whiteSpace=wrap;html=1;fillColor=#dae8fc;strokeColor=#6c8ebf;strokeWidth=2;" vertex="1" parent="1">
          <mxGeometry x="250" y="170" width="60" height="100" as="geometry" />
        </mxCell>
        <mxCell id="xk-oOxLGbY3HGCxId3EP-173" value="" style="rounded=0;whiteSpace=wrap;html=1;fillColor=#fff2cc;strokeColor=#d6b656;strokeWidth=2;" vertex="1" parent="1">
          <mxGeometry x="260" y="180" width="40" height="40" as="geometry" />
        </mxCell>
        <mxCell id="xk-oOxLGbY3HGCxId3EP-174" value="" style="rounded=0;whiteSpace=wrap;html=1;fillColor=#fff2cc;strokeColor=#d6b656;strokeWidth=2;" vertex="1" parent="1">
          <mxGeometry x="260" y="220" width="40" height="40" as="geometry" />
        </mxCell>
        <mxCell id="xk-oOxLGbY3HGCxId3EP-175" value="&lt;font color=&quot;#9a9996&quot;&gt;&lt;b&gt;&lt;font style=&quot;font-size: 14px;&quot;&gt;t&lt;sub&gt;2&lt;br&gt;&lt;/sub&gt;&lt;/font&gt;&lt;/b&gt;&lt;/font&gt;" style="text;html=1;align=center;verticalAlign=middle;whiteSpace=wrap;rounded=0;" vertex="1" parent="1">
          <mxGeometry x="250" y="580" width="60" height="30" as="geometry" />
        </mxCell>
        <mxCell id="xk-oOxLGbY3HGCxId3EP-176" value="" style="rounded=0;whiteSpace=wrap;html=1;fillColor=#dae8fc;strokeColor=#6c8ebf;strokeWidth=2;" vertex="1" parent="1">
          <mxGeometry x="250" y="270" width="60" height="100" as="geometry" />
        </mxCell>
        <mxCell id="xk-oOxLGbY3HGCxId3EP-177" value="" style="rounded=0;whiteSpace=wrap;html=1;fillColor=#fff2cc;strokeColor=#d6b656;strokeWidth=2;" vertex="1" parent="1">
          <mxGeometry x="260" y="280" width="40" height="40" as="geometry" />
        </mxCell>
        <mxCell id="xk-oOxLGbY3HGCxId3EP-178" value="" style="rounded=0;whiteSpace=wrap;html=1;fillColor=#fff2cc;strokeColor=#d6b656;strokeWidth=2;" vertex="1" parent="1">
          <mxGeometry x="260" y="320" width="40" height="40" as="geometry" />
        </mxCell>
        <mxCell id="xk-oOxLGbY3HGCxId3EP-179" value="" style="rounded=0;whiteSpace=wrap;html=1;fillColor=#dae8fc;strokeColor=#6c8ebf;strokeWidth=2;" vertex="1" parent="1">
          <mxGeometry x="250" y="370" width="60" height="100" as="geometry" />
        </mxCell>
        <mxCell id="xk-oOxLGbY3HGCxId3EP-180" value="" style="rounded=0;whiteSpace=wrap;html=1;fillColor=#fff2cc;strokeColor=#d6b656;strokeWidth=2;" vertex="1" parent="1">
          <mxGeometry x="260" y="380" width="40" height="40" as="geometry" />
        </mxCell>
        <mxCell id="xk-oOxLGbY3HGCxId3EP-181" value="" style="rounded=0;whiteSpace=wrap;html=1;fillColor=#fff2cc;strokeColor=#d6b656;strokeWidth=2;" vertex="1" parent="1">
          <mxGeometry x="260" y="420" width="40" height="40" as="geometry" />
        </mxCell>
        <mxCell id="xk-oOxLGbY3HGCxId3EP-182" value="" style="rounded=0;whiteSpace=wrap;html=1;fillColor=#dae8fc;strokeColor=#6c8ebf;strokeWidth=2;" vertex="1" parent="1">
          <mxGeometry x="250" y="470" width="60" height="100" as="geometry" />
        </mxCell>
        <mxCell id="xk-oOxLGbY3HGCxId3EP-183" value="" style="rounded=0;whiteSpace=wrap;html=1;fillColor=#fff2cc;strokeColor=#d6b656;strokeWidth=2;" vertex="1" parent="1">
          <mxGeometry x="260" y="480" width="40" height="40" as="geometry" />
        </mxCell>
        <mxCell id="xk-oOxLGbY3HGCxId3EP-184" value="" style="rounded=0;whiteSpace=wrap;html=1;fillColor=#fff2cc;strokeColor=#d6b656;strokeWidth=2;" vertex="1" parent="1">
          <mxGeometry x="260" y="520" width="40" height="40" as="geometry" />
        </mxCell>
        <mxCell id="xk-oOxLGbY3HGCxId3EP-185" value="" style="rounded=0;whiteSpace=wrap;html=1;fillColor=#f5f5f5;strokeColor=#666666;fontColor=#333333;strokeWidth=2;" vertex="1" parent="1">
          <mxGeometry x="320" y="160" width="80" height="420" as="geometry" />
        </mxCell>
        <mxCell id="xk-oOxLGbY3HGCxId3EP-186" value="" style="rounded=0;whiteSpace=wrap;html=1;fillColor=#dae8fc;strokeColor=#6c8ebf;strokeWidth=2;" vertex="1" parent="1">
          <mxGeometry x="330" y="170" width="60" height="100" as="geometry" />
        </mxCell>
        <mxCell id="xk-oOxLGbY3HGCxId3EP-187" value="" style="rounded=0;whiteSpace=wrap;html=1;fillColor=#fff2cc;strokeColor=#d6b656;strokeWidth=2;" vertex="1" parent="1">
          <mxGeometry x="340" y="180" width="40" height="40" as="geometry" />
        </mxCell>
        <mxCell id="xk-oOxLGbY3HGCxId3EP-188" value="" style="rounded=0;whiteSpace=wrap;html=1;fillColor=#fff2cc;strokeColor=#d6b656;strokeWidth=2;" vertex="1" parent="1">
          <mxGeometry x="340" y="220" width="40" height="40" as="geometry" />
        </mxCell>
        <mxCell id="xk-oOxLGbY3HGCxId3EP-189" value="&lt;font color=&quot;#9a9996&quot;&gt;&lt;b&gt;&lt;font style=&quot;font-size: 14px;&quot;&gt;t&lt;sub&gt;3&lt;br&gt;&lt;/sub&gt;&lt;/font&gt;&lt;/b&gt;&lt;/font&gt;" style="text;html=1;align=center;verticalAlign=middle;whiteSpace=wrap;rounded=0;" vertex="1" parent="1">
          <mxGeometry x="330" y="580" width="60" height="30" as="geometry" />
        </mxCell>
        <mxCell id="xk-oOxLGbY3HGCxId3EP-190" value="" style="rounded=0;whiteSpace=wrap;html=1;fillColor=#dae8fc;strokeColor=#6c8ebf;strokeWidth=2;" vertex="1" parent="1">
          <mxGeometry x="330" y="270" width="60" height="100" as="geometry" />
        </mxCell>
        <mxCell id="xk-oOxLGbY3HGCxId3EP-191" value="" style="rounded=0;whiteSpace=wrap;html=1;fillColor=#fff2cc;strokeColor=#d6b656;strokeWidth=2;" vertex="1" parent="1">
          <mxGeometry x="340" y="280" width="40" height="40" as="geometry" />
        </mxCell>
        <mxCell id="xk-oOxLGbY3HGCxId3EP-192" value="" style="rounded=0;whiteSpace=wrap;html=1;fillColor=#fff2cc;strokeColor=#d6b656;strokeWidth=2;" vertex="1" parent="1">
          <mxGeometry x="340" y="320" width="40" height="40" as="geometry" />
        </mxCell>
        <mxCell id="xk-oOxLGbY3HGCxId3EP-193" value="" style="rounded=0;whiteSpace=wrap;html=1;fillColor=#dae8fc;strokeColor=#6c8ebf;strokeWidth=2;" vertex="1" parent="1">
          <mxGeometry x="330" y="370" width="60" height="100" as="geometry" />
        </mxCell>
        <mxCell id="xk-oOxLGbY3HGCxId3EP-194" value="" style="rounded=0;whiteSpace=wrap;html=1;fillColor=#fff2cc;strokeColor=#d6b656;strokeWidth=2;" vertex="1" parent="1">
          <mxGeometry x="340" y="380" width="40" height="40" as="geometry" />
        </mxCell>
        <mxCell id="xk-oOxLGbY3HGCxId3EP-195" value="" style="rounded=0;whiteSpace=wrap;html=1;fillColor=#fff2cc;strokeColor=#d6b656;strokeWidth=2;" vertex="1" parent="1">
          <mxGeometry x="340" y="420" width="40" height="40" as="geometry" />
        </mxCell>
        <mxCell id="xk-oOxLGbY3HGCxId3EP-196" value="" style="rounded=0;whiteSpace=wrap;html=1;fillColor=#dae8fc;strokeColor=#6c8ebf;strokeWidth=2;" vertex="1" parent="1">
          <mxGeometry x="330" y="470" width="60" height="100" as="geometry" />
        </mxCell>
        <mxCell id="xk-oOxLGbY3HGCxId3EP-197" value="" style="rounded=0;whiteSpace=wrap;html=1;fillColor=#fff2cc;strokeColor=#d6b656;strokeWidth=2;" vertex="1" parent="1">
          <mxGeometry x="340" y="480" width="40" height="40" as="geometry" />
        </mxCell>
        <mxCell id="xk-oOxLGbY3HGCxId3EP-198" value="" style="rounded=0;whiteSpace=wrap;html=1;fillColor=#fff2cc;strokeColor=#d6b656;strokeWidth=2;" vertex="1" parent="1">
          <mxGeometry x="340" y="520" width="40" height="40" as="geometry" />
        </mxCell>
        <mxCell id="xk-oOxLGbY3HGCxId3EP-199" value="" style="rounded=0;whiteSpace=wrap;html=1;fillColor=#f5f5f5;strokeColor=#666666;fontColor=#333333;strokeWidth=2;" vertex="1" parent="1">
          <mxGeometry x="400" y="160" width="80" height="420" as="geometry" />
        </mxCell>
        <mxCell id="xk-oOxLGbY3HGCxId3EP-200" value="" style="rounded=0;whiteSpace=wrap;html=1;fillColor=#dae8fc;strokeColor=#6c8ebf;strokeWidth=2;" vertex="1" parent="1">
          <mxGeometry x="410" y="170" width="60" height="100" as="geometry" />
        </mxCell>
        <mxCell id="xk-oOxLGbY3HGCxId3EP-201" value="" style="rounded=0;whiteSpace=wrap;html=1;fillColor=#fff2cc;strokeColor=#d6b656;strokeWidth=2;" vertex="1" parent="1">
          <mxGeometry x="420" y="180" width="40" height="40" as="geometry" />
        </mxCell>
        <mxCell id="xk-oOxLGbY3HGCxId3EP-202" value="" style="rounded=0;whiteSpace=wrap;html=1;fillColor=#fff2cc;strokeColor=#d6b656;strokeWidth=2;" vertex="1" parent="1">
          <mxGeometry x="420" y="220" width="40" height="40" as="geometry" />
        </mxCell>
        <mxCell id="xk-oOxLGbY3HGCxId3EP-203" value="&lt;font color=&quot;#9a9996&quot;&gt;&lt;b&gt;&lt;font style=&quot;font-size: 14px;&quot;&gt;t&lt;sub&gt;4&lt;br&gt;&lt;/sub&gt;&lt;/font&gt;&lt;/b&gt;&lt;/font&gt;" style="text;html=1;align=center;verticalAlign=middle;whiteSpace=wrap;rounded=0;" vertex="1" parent="1">
          <mxGeometry x="410" y="580" width="60" height="30" as="geometry" />
        </mxCell>
        <mxCell id="xk-oOxLGbY3HGCxId3EP-204" value="" style="rounded=0;whiteSpace=wrap;html=1;fillColor=#dae8fc;strokeColor=#6c8ebf;strokeWidth=2;" vertex="1" parent="1">
          <mxGeometry x="410" y="270" width="60" height="100" as="geometry" />
        </mxCell>
        <mxCell id="xk-oOxLGbY3HGCxId3EP-205" value="" style="rounded=0;whiteSpace=wrap;html=1;fillColor=#fff2cc;strokeColor=#d6b656;strokeWidth=2;" vertex="1" parent="1">
          <mxGeometry x="420" y="280" width="40" height="40" as="geometry" />
        </mxCell>
        <mxCell id="xk-oOxLGbY3HGCxId3EP-206" value="" style="rounded=0;whiteSpace=wrap;html=1;fillColor=#fff2cc;strokeColor=#d6b656;strokeWidth=2;" vertex="1" parent="1">
          <mxGeometry x="420" y="320" width="40" height="40" as="geometry" />
        </mxCell>
        <mxCell id="xk-oOxLGbY3HGCxId3EP-207" value="" style="rounded=0;whiteSpace=wrap;html=1;fillColor=#dae8fc;strokeColor=#6c8ebf;strokeWidth=2;" vertex="1" parent="1">
          <mxGeometry x="410" y="370" width="60" height="100" as="geometry" />
        </mxCell>
        <mxCell id="xk-oOxLGbY3HGCxId3EP-208" value="" style="rounded=0;whiteSpace=wrap;html=1;fillColor=#fff2cc;strokeColor=#d6b656;strokeWidth=2;" vertex="1" parent="1">
          <mxGeometry x="420" y="380" width="40" height="40" as="geometry" />
        </mxCell>
        <mxCell id="xk-oOxLGbY3HGCxId3EP-209" value="" style="rounded=0;whiteSpace=wrap;html=1;fillColor=#fff2cc;strokeColor=#d6b656;strokeWidth=2;" vertex="1" parent="1">
          <mxGeometry x="420" y="420" width="40" height="40" as="geometry" />
        </mxCell>
        <mxCell id="xk-oOxLGbY3HGCxId3EP-210" value="" style="rounded=0;whiteSpace=wrap;html=1;fillColor=#dae8fc;strokeColor=#6c8ebf;strokeWidth=2;" vertex="1" parent="1">
          <mxGeometry x="410" y="470" width="60" height="100" as="geometry" />
        </mxCell>
        <mxCell id="xk-oOxLGbY3HGCxId3EP-211" value="" style="rounded=0;whiteSpace=wrap;html=1;fillColor=#fff2cc;strokeColor=#d6b656;strokeWidth=2;" vertex="1" parent="1">
          <mxGeometry x="420" y="480" width="40" height="40" as="geometry" />
        </mxCell>
        <mxCell id="xk-oOxLGbY3HGCxId3EP-212" value="" style="rounded=0;whiteSpace=wrap;html=1;fillColor=#fff2cc;strokeColor=#d6b656;strokeWidth=2;" vertex="1" parent="1">
          <mxGeometry x="420" y="520" width="40" height="40" as="geometry" />
        </mxCell>
        <mxCell id="xk-oOxLGbY3HGCxId3EP-213" value="" style="rounded=0;whiteSpace=wrap;html=1;fillColor=#f5f5f5;strokeColor=#666666;fontColor=#333333;strokeWidth=2;" vertex="1" parent="1">
          <mxGeometry x="480" y="160" width="80" height="420" as="geometry" />
        </mxCell>
        <mxCell id="xk-oOxLGbY3HGCxId3EP-214" value="" style="rounded=0;whiteSpace=wrap;html=1;fillColor=#dae8fc;strokeColor=#6c8ebf;strokeWidth=2;" vertex="1" parent="1">
          <mxGeometry x="490" y="170" width="60" height="100" as="geometry" />
        </mxCell>
        <mxCell id="xk-oOxLGbY3HGCxId3EP-215" value="" style="rounded=0;whiteSpace=wrap;html=1;fillColor=#fff2cc;strokeColor=#d6b656;strokeWidth=2;" vertex="1" parent="1">
          <mxGeometry x="500" y="180" width="40" height="40" as="geometry" />
        </mxCell>
        <mxCell id="xk-oOxLGbY3HGCxId3EP-216" value="" style="rounded=0;whiteSpace=wrap;html=1;fillColor=#fff2cc;strokeColor=#d6b656;strokeWidth=2;" vertex="1" parent="1">
          <mxGeometry x="500" y="220" width="40" height="40" as="geometry" />
        </mxCell>
        <mxCell id="xk-oOxLGbY3HGCxId3EP-217" value="&lt;font color=&quot;#9a9996&quot;&gt;&lt;b&gt;&lt;font style=&quot;font-size: 14px;&quot;&gt;t&lt;sub&gt;5&lt;br&gt;&lt;/sub&gt;&lt;/font&gt;&lt;/b&gt;&lt;/font&gt;" style="text;html=1;align=center;verticalAlign=middle;whiteSpace=wrap;rounded=0;" vertex="1" parent="1">
          <mxGeometry x="490" y="580" width="60" height="30" as="geometry" />
        </mxCell>
        <mxCell id="xk-oOxLGbY3HGCxId3EP-218" value="" style="rounded=0;whiteSpace=wrap;html=1;fillColor=#dae8fc;strokeColor=#6c8ebf;strokeWidth=2;" vertex="1" parent="1">
          <mxGeometry x="490" y="270" width="60" height="100" as="geometry" />
        </mxCell>
        <mxCell id="xk-oOxLGbY3HGCxId3EP-219" value="" style="rounded=0;whiteSpace=wrap;html=1;fillColor=#fff2cc;strokeColor=#d6b656;strokeWidth=2;" vertex="1" parent="1">
          <mxGeometry x="500" y="280" width="40" height="40" as="geometry" />
        </mxCell>
        <mxCell id="xk-oOxLGbY3HGCxId3EP-220" value="" style="rounded=0;whiteSpace=wrap;html=1;fillColor=#fff2cc;strokeColor=#d6b656;strokeWidth=2;" vertex="1" parent="1">
          <mxGeometry x="500" y="320" width="40" height="40" as="geometry" />
        </mxCell>
        <mxCell id="xk-oOxLGbY3HGCxId3EP-221" value="" style="rounded=0;whiteSpace=wrap;html=1;fillColor=#dae8fc;strokeColor=#6c8ebf;strokeWidth=2;" vertex="1" parent="1">
          <mxGeometry x="490" y="370" width="60" height="100" as="geometry" />
        </mxCell>
        <mxCell id="xk-oOxLGbY3HGCxId3EP-222" value="" style="rounded=0;whiteSpace=wrap;html=1;fillColor=#fff2cc;strokeColor=#d6b656;strokeWidth=2;" vertex="1" parent="1">
          <mxGeometry x="500" y="380" width="40" height="40" as="geometry" />
        </mxCell>
        <mxCell id="xk-oOxLGbY3HGCxId3EP-223" value="" style="rounded=0;whiteSpace=wrap;html=1;fillColor=#fff2cc;strokeColor=#d6b656;strokeWidth=2;" vertex="1" parent="1">
          <mxGeometry x="500" y="420" width="40" height="40" as="geometry" />
        </mxCell>
        <mxCell id="xk-oOxLGbY3HGCxId3EP-224" value="" style="rounded=0;whiteSpace=wrap;html=1;fillColor=#dae8fc;strokeColor=#6c8ebf;strokeWidth=2;" vertex="1" parent="1">
          <mxGeometry x="490" y="470" width="60" height="100" as="geometry" />
        </mxCell>
        <mxCell id="xk-oOxLGbY3HGCxId3EP-225" value="" style="rounded=0;whiteSpace=wrap;html=1;fillColor=#fff2cc;strokeColor=#d6b656;strokeWidth=2;" vertex="1" parent="1">
          <mxGeometry x="500" y="480" width="40" height="40" as="geometry" />
        </mxCell>
        <mxCell id="xk-oOxLGbY3HGCxId3EP-226" value="" style="rounded=0;whiteSpace=wrap;html=1;fillColor=#fff2cc;strokeColor=#d6b656;strokeWidth=2;" vertex="1" parent="1">
          <mxGeometry x="500" y="520" width="40" height="40" as="geometry" />
        </mxCell>
      </root>
    </mxGraphModel>
  </diagram>
</mxfile>
